<?xml version="1.0" encoding="UTF-8" standalone="no"?>
<svg xmlns="http://www.w3.org/2000/svg" viewBox="-70.46 65.115 585.5 585.5" width="512" height="512">
<path d="M236.881 292.053C250.942 278.258 276.651 281.829 296.77 277.576C320.838 272.487 339.031 253.935 348 233.487C367.418 189.215 347.626 133.849 291.719 120.962C268.443 115.597 243.751 118.459 219.744 118.577C217.205 118.589 194.126 119.332 192.145 122.278C187.965 128.494 189.394 136.703 189.259 143.994C188.552 181.935 190.029 219.889 189.619 257.835C189.548 264.437 188.417 270.995 187.816 277.576C143.693 264.163 161.634 162.478 154.797 130.965C151.206 114.409 140.998 121.759 132.978 110.434C165.24 105.493 198.404 108.401 231.109 109.118C261.295 109.779 315.338 106.208 346.196 122.443C407.868 154.891 411.866 242.059 349.443 276.26C316.687 294.206 272.2 290.595 236.881 292.053Z" fill="#000000" fill-rule="nonzero" stroke="none"/>
<path d="M121.433 157.813C125.697 190.216 83.9361 206.736 116.743 252.241C176.211 334.727 323.755 363.429 299.656 483.871C279.541 584.397 118.834 610.237 53.6072 532.237C33.2202 507.858 37.4991 478.577 37.7331 449.982C39.8482 577.293 219.643 607.47 266.825 484.529C312.687 365.029 32.7063 327.737 81.7477 205.191C90.6128 183.039 103.264 175.278 121.433 157.813Z" fill="#a55a4a" fill-rule="nonzero" stroke="none"/>
<path d="M158.954 371.017C220.277 408.301 160.501 478.527 216.678 492.097C206.37 504.725 141.214 505.172 132.978 492.097C162.71 491.52 158.051 481.634 158.683 452.614C159.275 425.421 158.863 398.216 158.954 371.017Z" fill="#000000" fill-rule="nonzero" stroke="none"/>
</svg>
