<?xml version="1.0" encoding="UTF-8" standalone="no"?>
<!DOCTYPE svg PUBLIC "-//W3C//DTD SVG 1.1//EN" "http://www.w3.org/Graphics/SVG/1.1/DTD/svg11.dtd">
<!-- Created with Linearity Curve (http://linearity.io/curve) -->
<svg height="100%" stroke-miterlimit="10" style="fill-rule:nonzero;clip-rule:evenodd;stroke-linecap:round;stroke-linejoin:round;" version="1.1" viewBox="547.196 118.613 499.521 470.246" width="100%" xml:space="preserve" xmlns="http://www.w3.org/2000/svg" xmlns:vectornator="http://vectornator.io" xmlns:xlink="http://www.w3.org/1999/xlink">
<defs/>
<g id="Layer">
<g opacity="1">
<path d="M746.872 303.05C760.933 289.255 786.642 292.827 806.761 288.573C830.829 283.485 849.022 264.933 857.991 244.485C877.409 200.213 857.617 144.847 801.71 131.96C778.434 126.595 753.742 129.456 729.735 129.575C727.196 129.587 704.117 130.33 702.136 133.276C697.956 139.492 699.386 147.701 699.25 154.991C698.543 192.933 700.02 230.887 699.61 268.832C699.539 275.435 698.408 281.993 697.807 288.573C653.684 275.161 671.625 173.476 664.788 141.962C661.197 125.407 650.989 132.757 642.969 121.431C675.231 116.49 708.395 119.399 741.1 120.115C771.286 120.776 825.329 117.205 856.187 133.441C917.859 165.889 921.857 253.057 859.434 287.257C826.678 305.204 782.191 301.592 746.872 303.05Z" fill="#000000" fill-rule="nonzero" opacity="1" stroke="none"/>
<path d="M631.424 168.81C635.688 201.214 593.927 217.734 626.734 263.239C686.202 345.724 833.747 374.427 809.647 494.869C789.532 595.395 628.826 621.235 563.598 543.235C543.211 518.855 547.49 489.575 547.724 460.98C549.839 588.291 729.634 618.468 776.816 495.527C822.678 376.027 542.697 338.735 591.739 216.189C600.604 194.037 613.255 186.276 631.424 168.81Z" fill="#000000" fill-rule="nonzero" opacity="1" stroke="none"/>
<path d="M668.945 382.015C730.268 419.299 670.492 489.525 726.669 503.094C716.361 515.723 651.205 516.17 642.969 503.094C672.701 502.517 668.042 492.632 668.674 463.612C669.266 436.418 668.854 409.214 668.945 382.015Z" fill="#000000" fill-rule="nonzero" opacity="1" stroke="none"/>
<g opacity="1">
<path d="M820.987 341.725L820.987 365.234L822.834 365.234L822.834 341.725L820.987 341.725ZM822.028 343.471L826.495 343.471C828.219 343.471 829.618 343.914 830.693 344.798C831.768 345.682 832.305 346.975 832.305 348.677C832.305 350.356 831.768 351.644 830.693 352.539C829.618 353.435 828.219 353.883 826.495 353.883L822.028 353.883L822.028 355.629L826.495 355.629C827.973 355.629 829.288 355.355 830.441 354.806C831.594 354.258 832.506 353.457 833.178 352.405C833.85 351.353 834.186 350.11 834.186 348.677C834.186 347.222 833.85 345.979 833.178 344.949C832.506 343.919 831.594 343.124 830.441 342.565C829.288 342.005 827.973 341.725 826.495 341.725L822.028 341.725L822.028 343.471Z" fill="#000000" fill-rule="nonzero" opacity="1" stroke="none"/>
<path d="M852.481 354.017L860.272 365.234L862.556 365.234L854.53 354.017L852.481 354.017ZM848.484 341.725L848.484 365.234L850.332 365.234L850.332 341.725L848.484 341.725ZM849.458 343.371L853.858 343.371C855.045 343.371 856.097 343.572 857.015 343.975C857.933 344.378 858.655 344.96 859.181 345.722C859.707 346.483 859.97 347.423 859.97 348.543C859.97 349.662 859.713 350.608 859.198 351.381C858.683 352.153 857.961 352.735 857.032 353.127C856.102 353.519 855.045 353.715 853.858 353.715L849.458 353.715L849.458 355.36L853.858 355.36C855.38 355.36 856.741 355.097 857.938 354.571C859.136 354.045 860.082 353.267 860.776 352.237C861.47 351.207 861.817 349.976 861.817 348.543C861.817 347.087 861.47 345.856 860.776 344.848C860.082 343.841 859.136 343.068 857.938 342.531C856.741 341.994 855.38 341.725 853.858 341.725L849.458 341.725L849.458 343.371Z" fill="#000000" fill-rule="nonzero" opacity="1" stroke="none"/>
<path d="M876.653 353.48C876.653 351.509 877.073 349.757 877.913 348.224C878.752 346.69 879.906 345.481 881.372 344.597C882.839 343.712 884.512 343.27 886.393 343.27C888.274 343.27 889.947 343.712 891.414 344.597C892.88 345.481 894.028 346.69 894.856 348.224C895.684 349.757 896.099 351.509 896.099 353.48C896.099 355.427 895.684 357.174 894.856 358.719C894.028 360.264 892.88 361.478 891.414 362.363C889.947 363.247 888.274 363.689 886.393 363.689C884.512 363.689 882.839 363.247 881.372 362.363C879.906 361.478 878.752 360.264 877.913 358.719C877.073 357.174 876.653 355.427 876.653 353.48ZM874.706 353.48C874.706 355.204 874.997 356.799 875.579 358.265C876.161 359.732 876.978 361.008 878.03 362.094C879.083 363.18 880.32 364.025 881.741 364.629C883.163 365.234 884.714 365.536 886.393 365.536C888.072 365.536 889.623 365.234 891.044 364.629C892.466 364.025 893.703 363.18 894.755 362.094C895.808 361.008 896.625 359.732 897.207 358.265C897.789 356.799 898.08 355.204 898.08 353.48C898.08 351.756 897.789 350.16 897.207 348.694C896.625 347.227 895.808 345.951 894.755 344.865C893.703 343.779 892.466 342.934 891.044 342.33C889.623 341.725 888.072 341.423 886.393 341.423C884.714 341.423 883.163 341.725 881.741 342.33C880.32 342.934 879.083 343.779 878.03 344.865C876.978 345.951 876.161 347.227 875.579 348.694C874.997 350.16 874.706 351.756 874.706 353.48Z" fill="#000000" fill-rule="nonzero" opacity="1" stroke="none"/>
<path d="M912.379 341.725L912.379 365.234L914.226 365.234L914.226 341.725L912.379 341.725ZM913.42 343.471L917.887 343.471C919.611 343.471 921.01 343.914 922.085 344.798C923.159 345.682 923.697 346.975 923.697 348.677C923.697 350.356 923.159 351.644 922.085 352.539C921.01 353.435 919.611 353.883 917.887 353.883L913.42 353.883L913.42 355.629L917.887 355.629C919.364 355.629 920.68 355.355 921.833 354.806C922.986 354.258 923.898 353.457 924.57 352.405C925.242 351.353 925.577 350.11 925.577 348.677C925.577 347.222 925.242 345.979 924.57 344.949C923.898 343.919 922.986 343.124 921.833 342.565C920.68 342.005 919.364 341.725 917.887 341.725L913.42 341.725L913.42 343.471Z" fill="#000000" fill-rule="nonzero" opacity="1" stroke="none"/>
<path d="M940.481 353.48C940.481 351.509 940.901 349.757 941.74 348.224C942.58 346.69 943.733 345.481 945.199 344.597C946.666 343.712 948.339 343.27 950.22 343.27C952.101 343.27 953.774 343.712 955.241 344.597C956.707 345.481 957.855 346.69 958.683 348.224C959.512 349.757 959.926 351.509 959.926 353.48C959.926 355.427 959.512 357.174 958.683 358.719C957.855 360.264 956.707 361.478 955.241 362.363C953.774 363.247 952.101 363.689 950.22 363.689C948.339 363.689 946.666 363.247 945.199 362.363C943.733 361.478 942.58 360.264 941.74 358.719C940.901 357.174 940.481 355.427 940.481 353.48ZM938.533 353.48C938.533 355.204 938.824 356.799 939.406 358.265C939.988 359.732 940.805 361.008 941.858 362.094C942.91 363.18 944.147 364.025 945.569 364.629C946.99 365.234 948.541 365.536 950.22 365.536C951.899 365.536 953.45 365.234 954.871 364.629C956.293 364.025 957.53 363.18 958.583 362.094C959.635 361.008 960.452 359.732 961.034 358.265C961.616 356.799 961.907 355.204 961.907 353.48C961.907 351.756 961.616 350.16 961.034 348.694C960.452 347.227 959.635 345.951 958.583 344.865C957.53 343.779 956.293 342.934 954.871 342.33C953.45 341.725 951.899 341.423 950.22 341.423C948.541 341.423 946.99 341.725 945.569 342.33C944.147 342.934 942.91 343.779 941.858 344.865C940.805 345.951 939.988 347.227 939.406 348.694C938.824 350.16 938.533 351.756 938.533 353.48Z" fill="#000000" fill-rule="nonzero" opacity="1" stroke="none"/>
<path d="M976.374 358.45L974.863 359.39C975.243 360.487 975.781 361.506 976.475 362.446C977.169 363.387 978.031 364.137 979.061 364.697C980.091 365.256 981.289 365.536 982.654 365.536C983.617 365.536 984.513 365.385 985.341 365.083C986.169 364.781 986.891 364.344 987.507 363.773C988.123 363.202 988.604 362.525 988.951 361.741C989.298 360.958 989.472 360.084 989.472 359.122C989.472 358.092 989.293 357.202 988.934 356.452C988.576 355.702 988.112 355.058 987.541 354.521C986.97 353.983 986.337 353.535 985.643 353.177C984.949 352.819 984.278 352.517 983.628 352.27C982.374 351.823 981.322 351.347 980.471 350.843C979.621 350.339 978.982 349.774 978.557 349.147C978.132 348.52 977.919 347.77 977.919 346.897C977.919 345.845 978.288 344.966 979.027 344.261C979.766 343.555 980.818 343.203 982.184 343.203C983.214 343.203 984.076 343.399 984.77 343.791C985.464 344.182 986.041 344.669 986.5 345.251C986.959 345.834 987.311 346.427 987.558 347.031L989.17 346.125C988.856 345.363 988.397 344.625 987.793 343.908C987.188 343.192 986.432 342.598 985.526 342.128C984.619 341.658 983.539 341.423 982.285 341.423C981.076 341.423 979.99 341.664 979.027 342.145C978.064 342.626 977.314 343.298 976.777 344.16C976.24 345.022 975.971 346.013 975.971 347.132C975.971 348.14 976.167 349.002 976.559 349.718C976.951 350.435 977.46 351.045 978.087 351.548C978.714 352.052 979.391 352.478 980.119 352.825C980.846 353.172 981.546 353.468 982.218 353.715C983.113 354.05 983.97 354.437 984.787 354.873C985.604 355.31 986.27 355.875 986.785 356.569C987.3 357.263 987.558 358.181 987.558 359.323C987.558 360.622 987.127 361.691 986.265 362.53C985.403 363.37 984.21 363.79 982.688 363.79C981.568 363.79 980.606 363.549 979.8 363.068C978.994 362.586 978.316 361.943 977.768 361.137C977.219 360.331 976.755 359.435 976.374 358.45Z" fill="#000000" fill-rule="nonzero" opacity="1" stroke="none"/>
<path d="M1005.68 357.342L1017.74 357.342L1017.14 355.595L1006.29 355.595L1005.68 357.342ZM1011.66 345.083L1016.3 356.301L1016.47 356.737L1019.96 365.234L1022.04 365.234L1011.66 340.818L1001.29 365.234L1003.37 365.234L1006.89 356.603L1007.1 356.2L1011.66 345.083Z" fill="#000000" fill-rule="nonzero" opacity="1" stroke="none"/>
<path d="M1035.16 341.725L1035.16 365.234L1046.72 365.234L1046.72 363.488L1037.01 363.488L1037.01 341.725L1035.16 341.725Z" fill="#000000" fill-rule="nonzero" opacity="1" stroke="none"/>
</g>
<g opacity="1">
<path d="M859.074 399.846L857.562 400.787C857.943 401.884 858.48 402.903 859.174 403.843C859.868 404.783 860.73 405.533 861.76 406.093C862.79 406.653 863.988 406.933 865.354 406.933C866.317 406.933 867.212 406.782 868.041 406.479C868.869 406.177 869.591 405.74 870.207 405.17C870.823 404.599 871.304 403.921 871.651 403.138C871.998 402.354 872.171 401.481 872.171 400.518C872.171 399.488 871.992 398.598 871.634 397.848C871.276 397.098 870.811 396.454 870.24 395.917C869.669 395.38 869.037 394.932 868.343 394.574C867.649 394.216 866.977 393.913 866.328 393.667C865.074 393.219 864.022 392.743 863.171 392.24C862.32 391.736 861.682 391.171 861.257 390.544C860.831 389.917 860.619 389.167 860.619 388.294C860.619 387.241 860.988 386.362 861.727 385.657C862.466 384.952 863.518 384.599 864.884 384.599C865.914 384.599 866.776 384.795 867.47 385.187C868.164 385.579 868.74 386.066 869.199 386.648C869.658 387.23 870.011 387.823 870.257 388.428L871.869 387.521C871.556 386.76 871.097 386.021 870.492 385.305C869.888 384.588 869.132 383.995 868.225 383.525C867.319 383.054 866.238 382.819 864.984 382.819C863.775 382.819 862.69 383.06 861.727 383.541C860.764 384.023 860.014 384.694 859.477 385.556C858.939 386.418 858.671 387.409 858.671 388.529C858.671 389.536 858.867 390.398 859.258 391.115C859.65 391.831 860.16 392.441 860.786 392.945C861.413 393.449 862.091 393.874 862.818 394.221C863.546 394.568 864.246 394.865 864.917 395.111C865.813 395.447 866.669 395.833 867.486 396.27C868.304 396.706 868.97 397.272 869.485 397.966C870 398.66 870.257 399.578 870.257 400.72C870.257 402.018 869.826 403.087 868.964 403.927C868.102 404.767 866.91 405.186 865.387 405.186C864.268 405.186 863.305 404.946 862.499 404.464C861.693 403.983 861.016 403.339 860.467 402.533C859.919 401.727 859.454 400.832 859.074 399.846Z" fill="#000000" fill-rule="nonzero" opacity="1" stroke="none"/>
<path d="M886.504 383.122L886.504 406.63L888.351 406.63L888.351 383.122L886.504 383.122ZM887.545 384.868L892.012 384.868C893.736 384.868 895.135 385.31 896.21 386.195C897.284 387.079 897.822 388.372 897.822 390.073C897.822 391.753 897.284 393.04 896.21 393.936C895.135 394.831 893.736 395.279 892.012 395.279L887.545 395.279L887.545 397.025L892.012 397.025C893.489 397.025 894.805 396.751 895.958 396.203C897.111 395.654 898.023 394.854 898.695 393.801C899.367 392.749 899.702 391.506 899.702 390.073C899.702 388.618 899.367 387.376 898.695 386.346C898.023 385.316 897.111 384.521 895.958 383.961C894.805 383.401 893.489 383.122 892.012 383.122L887.545 383.122L887.545 384.868Z" fill="#000000" fill-rule="nonzero" opacity="1" stroke="none"/>
<path d="M914.606 394.876C914.606 392.906 915.025 391.154 915.865 389.62C916.705 388.086 917.858 386.877 919.324 385.993C920.791 385.109 922.464 384.666 924.345 384.666C926.226 384.666 927.899 385.109 929.366 385.993C930.832 386.877 931.98 388.086 932.808 389.62C933.637 391.154 934.051 392.906 934.051 394.876C934.051 396.824 933.637 398.57 932.808 400.115C931.98 401.66 930.832 402.875 929.366 403.759C927.899 404.643 926.226 405.086 924.345 405.086C922.464 405.086 920.791 404.643 919.324 403.759C917.858 402.875 916.705 401.66 915.865 400.115C915.025 398.57 914.606 396.824 914.606 394.876ZM912.658 394.876C912.658 396.6 912.949 398.195 913.531 399.662C914.113 401.128 914.93 402.404 915.983 403.49C917.035 404.576 918.272 405.421 919.694 406.026C921.115 406.63 922.666 406.933 924.345 406.933C926.024 406.933 927.575 406.63 928.996 406.026C930.418 405.421 931.655 404.576 932.707 403.49C933.76 402.404 934.577 401.128 935.159 399.662C935.741 398.195 936.032 396.6 936.032 394.876C936.032 393.152 935.741 391.557 935.159 390.09C934.577 388.624 933.76 387.348 932.707 386.262C931.655 385.176 930.418 384.331 928.996 383.726C927.575 383.122 926.024 382.819 924.345 382.819C922.666 382.819 921.115 383.122 919.694 383.726C918.272 384.331 917.035 385.176 915.983 386.262C914.93 387.348 914.113 388.624 913.531 390.09C912.949 391.557 912.658 393.152 912.658 394.876Z" fill="#000000" fill-rule="nonzero" opacity="1" stroke="none"/>
<path d="M946.973 384.868L953.152 384.868L953.152 406.63L954.999 406.63L954.999 384.868L961.179 384.868L961.179 383.122L946.973 383.122L946.973 384.868Z" fill="#000000" fill-rule="nonzero" opacity="1" stroke="none"/>
<path d="M974.638 399.846L973.127 400.787C973.507 401.884 974.045 402.903 974.739 403.843C975.433 404.783 976.295 405.533 977.325 406.093C978.355 406.653 979.552 406.933 980.918 406.933C981.881 406.933 982.776 406.782 983.605 406.479C984.433 406.177 985.155 405.74 985.771 405.17C986.387 404.599 986.868 403.921 987.215 403.138C987.562 402.354 987.736 401.481 987.736 400.518C987.736 399.488 987.557 398.598 987.198 397.848C986.84 397.098 986.376 396.454 985.805 395.917C985.234 395.38 984.601 394.932 983.907 394.574C983.213 394.216 982.541 393.913 981.892 393.667C980.638 393.219 979.586 392.743 978.735 392.24C977.884 391.736 977.246 391.171 976.821 390.544C976.395 389.917 976.183 389.167 976.183 388.294C976.183 387.241 976.552 386.362 977.291 385.657C978.03 384.952 979.082 384.599 980.448 384.599C981.478 384.599 982.34 384.795 983.034 385.187C983.728 385.579 984.305 386.066 984.763 386.648C985.222 387.23 985.575 387.823 985.821 388.428L987.433 387.521C987.12 386.76 986.661 386.021 986.056 385.305C985.452 384.588 984.696 383.995 983.79 383.525C982.883 383.054 981.803 382.819 980.549 382.819C979.34 382.819 978.254 383.06 977.291 383.541C976.328 384.023 975.578 384.694 975.041 385.556C974.504 386.418 974.235 387.409 974.235 388.529C974.235 389.536 974.431 390.398 974.823 391.115C975.214 391.831 975.724 392.441 976.351 392.945C976.978 393.449 977.655 393.874 978.383 394.221C979.11 394.568 979.81 394.865 980.482 395.111C981.377 395.447 982.233 395.833 983.051 396.27C983.868 396.706 984.534 397.272 985.049 397.966C985.564 398.66 985.821 399.578 985.821 400.72C985.821 402.018 985.39 403.087 984.528 403.927C983.666 404.767 982.474 405.186 980.952 405.186C979.832 405.186 978.869 404.946 978.063 404.464C977.257 403.983 976.58 403.339 976.032 402.533C975.483 401.727 975.019 400.832 974.638 399.846Z" fill="#000000" fill-rule="nonzero" opacity="1" stroke="none"/>
</g>
</g>
</g>
</svg>
