<?xml version="1.0" encoding="UTF-8" standalone="no"?>
<!DOCTYPE svg PUBLIC "-//W3C//DTD SVG 1.1//EN" "http://www.w3.org/Graphics/SVG/1.1/DTD/svg11.dtd">
<!-- Created with Linearity Curve (http://linearity.io/curve) -->
<svg height="100%" stroke-miterlimit="10" style="fill-rule:nonzero;clip-rule:evenodd;stroke-linecap:round;stroke-linejoin:round;" version="1.1" viewBox="999.247 122.392 499.521 470.246" width="100%" xml:space="preserve" xmlns="http://www.w3.org/2000/svg" xmlns:vectornator="http://vectornator.io" xmlns:xlink="http://www.w3.org/1999/xlink">
<defs/>
<g id="Layer">
<g opacity="1">
<path d="M1198.92 306.83C1212.98 293.035 1238.69 296.606 1258.81 292.353C1282.88 287.264 1301.07 268.712 1310.04 248.264C1329.46 203.992 1309.67 148.626 1253.76 135.739C1230.49 130.374 1205.79 133.236 1181.79 133.354C1179.25 133.366 1156.17 134.109 1154.19 137.055C1150.01 143.271 1151.44 151.48 1151.3 158.771C1150.59 196.712 1152.07 234.666 1151.66 272.611C1151.59 279.214 1150.46 285.772 1149.86 292.353C1105.74 278.94 1123.68 177.255 1116.84 145.741C1113.25 129.186 1103.04 136.536 1095.02 125.211C1127.28 120.269 1160.45 123.178 1193.15 123.895C1223.34 124.556 1277.38 120.984 1308.24 137.22C1369.91 169.668 1373.91 256.836 1311.49 291.037C1278.73 308.983 1234.24 305.371 1198.92 306.83Z" fill="#ffffff" fill-rule="nonzero" opacity="1" stroke="none"/>
<path d="M1083.48 172.589C1087.74 204.993 1045.98 221.513 1078.79 267.018C1138.25 349.504 1285.8 378.206 1261.7 498.648C1241.58 599.174 1080.88 625.014 1015.65 547.014C995.263 522.635 999.541 493.354 999.775 464.759C1001.89 592.07 1181.69 622.247 1228.87 499.306C1274.73 379.806 994.749 342.514 1043.79 219.968C1052.66 197.816 1065.31 190.055 1083.48 172.589Z" fill="#ffffff" fill-rule="nonzero" opacity="1" stroke="none"/>
<path d="M1121 385.794C1182.32 423.078 1122.54 493.304 1178.72 506.874C1168.41 519.502 1103.26 519.949 1095.02 506.874C1124.75 506.297 1120.09 496.411 1120.73 467.391C1121.32 440.197 1120.91 412.993 1121 385.794Z" fill="#ffffff" fill-rule="nonzero" opacity="1" stroke="none"/>
<g opacity="1">
<path d="M1273.04 345.504L1273.04 369.013L1274.89 369.013L1274.89 345.504L1273.04 345.504ZM1274.08 347.251L1278.55 347.251C1280.27 347.251 1281.67 347.693 1282.74 348.577C1283.82 349.462 1284.36 350.755 1284.36 352.456C1284.36 354.135 1283.82 355.423 1282.74 356.318C1281.67 357.214 1280.27 357.662 1278.55 357.662L1274.08 357.662L1274.08 359.408L1278.55 359.408C1280.02 359.408 1281.34 359.134 1282.49 358.585C1283.65 358.037 1284.56 357.236 1285.23 356.184C1285.9 355.132 1286.24 353.889 1286.24 352.456C1286.24 351.001 1285.9 349.758 1285.23 348.728C1284.56 347.698 1283.65 346.904 1282.49 346.344C1281.34 345.784 1280.02 345.504 1278.55 345.504L1274.08 345.504L1274.08 347.251Z" fill="#ffffff" fill-rule="nonzero" opacity="1" stroke="none"/>
<path d="M1304.53 357.796L1312.32 369.013L1314.61 369.013L1306.58 357.796L1304.53 357.796ZM1300.54 345.504L1300.54 369.013L1302.38 369.013L1302.38 345.504L1300.54 345.504ZM1301.51 347.15L1305.91 347.15C1307.1 347.15 1308.15 347.351 1309.07 347.754C1309.98 348.157 1310.71 348.74 1311.23 349.501C1311.76 350.262 1312.02 351.202 1312.02 352.322C1312.02 353.441 1311.76 354.387 1311.25 355.16C1310.73 355.932 1310.01 356.514 1309.08 356.906C1308.15 357.298 1307.1 357.494 1305.91 357.494L1301.51 357.494L1301.51 359.139L1305.91 359.139C1307.43 359.139 1308.79 358.876 1309.99 358.35C1311.19 357.824 1312.13 357.046 1312.83 356.016C1313.52 354.986 1313.87 353.755 1313.87 352.322C1313.87 350.867 1313.52 349.635 1312.83 348.628C1312.13 347.62 1311.19 346.848 1309.99 346.31C1308.79 345.773 1307.43 345.504 1305.91 345.504L1301.51 345.504L1301.51 347.15Z" fill="#ffffff" fill-rule="nonzero" opacity="1" stroke="none"/>
<path d="M1328.7 357.259C1328.7 355.288 1329.12 353.537 1329.96 352.003C1330.8 350.469 1331.96 349.26 1333.42 348.376C1334.89 347.491 1336.56 347.049 1338.44 347.049C1340.32 347.049 1342 347.491 1343.46 348.376C1344.93 349.26 1346.08 350.469 1346.91 352.003C1347.74 353.537 1348.15 355.288 1348.15 357.259C1348.15 359.207 1347.74 360.953 1346.91 362.498C1346.08 364.043 1344.93 365.257 1343.46 366.142C1342 367.026 1340.32 367.468 1338.44 367.468C1336.56 367.468 1334.89 367.026 1333.42 366.142C1331.96 365.257 1330.8 364.043 1329.96 362.498C1329.12 360.953 1328.7 359.207 1328.7 357.259ZM1326.76 357.259C1326.76 358.983 1327.05 360.578 1327.63 362.044C1328.21 363.511 1329.03 364.787 1330.08 365.873C1331.13 366.959 1332.37 367.804 1333.79 368.409C1335.21 369.013 1336.76 369.315 1338.44 369.315C1340.12 369.315 1341.67 369.013 1343.1 368.409C1344.52 367.804 1345.75 366.959 1346.81 365.873C1347.86 364.787 1348.68 363.511 1349.26 362.044C1349.84 360.578 1350.13 358.983 1350.13 357.259C1350.13 355.535 1349.84 353.94 1349.26 352.473C1348.68 351.007 1347.86 349.73 1346.81 348.644C1345.75 347.559 1344.52 346.713 1343.1 346.109C1341.67 345.504 1340.12 345.202 1338.44 345.202C1336.76 345.202 1335.21 345.504 1333.79 346.109C1332.37 346.713 1331.13 347.559 1330.08 348.644C1329.03 349.73 1328.21 351.007 1327.63 352.473C1327.05 353.94 1326.76 355.535 1326.76 357.259Z" fill="#ffffff" fill-rule="nonzero" opacity="1" stroke="none"/>
<path d="M1364.43 345.504L1364.43 369.013L1366.28 369.013L1366.28 345.504L1364.43 345.504ZM1365.47 347.251L1369.94 347.251C1371.66 347.251 1373.06 347.693 1374.14 348.577C1375.21 349.462 1375.75 350.755 1375.75 352.456C1375.75 354.135 1375.21 355.423 1374.14 356.318C1373.06 357.214 1371.66 357.662 1369.94 357.662L1365.47 357.662L1365.47 359.408L1369.94 359.408C1371.42 359.408 1372.73 359.134 1373.88 358.585C1375.04 358.037 1375.95 357.236 1376.62 356.184C1377.29 355.132 1377.63 353.889 1377.63 352.456C1377.63 351.001 1377.29 349.758 1376.62 348.728C1375.95 347.698 1375.04 346.904 1373.88 346.344C1372.73 345.784 1371.42 345.504 1369.94 345.504L1365.47 345.504L1365.47 347.251Z" fill="#ffffff" fill-rule="nonzero" opacity="1" stroke="none"/>
<path d="M1392.53 357.259C1392.53 355.288 1392.95 353.537 1393.79 352.003C1394.63 350.469 1395.78 349.26 1397.25 348.376C1398.72 347.491 1400.39 347.049 1402.27 347.049C1404.15 347.049 1405.83 347.491 1407.29 348.376C1408.76 349.26 1409.91 350.469 1410.73 352.003C1411.56 353.537 1411.98 355.288 1411.98 357.259C1411.98 359.207 1411.56 360.953 1410.73 362.498C1409.91 364.043 1408.76 365.257 1407.29 366.142C1405.83 367.026 1404.15 367.468 1402.27 367.468C1400.39 367.468 1398.72 367.026 1397.25 366.142C1395.78 365.257 1394.63 364.043 1393.79 362.498C1392.95 360.953 1392.53 359.207 1392.53 357.259ZM1390.58 357.259C1390.58 358.983 1390.88 360.578 1391.46 362.044C1392.04 363.511 1392.86 364.787 1393.91 365.873C1394.96 366.959 1396.2 367.804 1397.62 368.409C1399.04 369.013 1400.59 369.315 1402.27 369.315C1403.95 369.315 1405.5 369.013 1406.92 368.409C1408.34 367.804 1409.58 366.959 1410.63 365.873C1411.69 364.787 1412.5 363.511 1413.09 362.044C1413.67 360.578 1413.96 358.983 1413.96 357.259C1413.96 355.535 1413.67 353.94 1413.09 352.473C1412.5 351.007 1411.69 349.73 1410.63 348.644C1409.58 347.559 1408.34 346.713 1406.92 346.109C1405.5 345.504 1403.95 345.202 1402.27 345.202C1400.59 345.202 1399.04 345.504 1397.62 346.109C1396.2 346.713 1394.96 347.559 1393.91 348.644C1392.86 349.73 1392.04 351.007 1391.46 352.473C1390.88 353.94 1390.58 355.535 1390.58 357.259Z" fill="#ffffff" fill-rule="nonzero" opacity="1" stroke="none"/>
<path d="M1428.43 362.229L1426.91 363.17C1427.29 364.267 1427.83 365.285 1428.53 366.226C1429.22 367.166 1430.08 367.916 1431.11 368.476C1432.14 369.036 1433.34 369.315 1434.71 369.315C1435.67 369.315 1436.56 369.164 1437.39 368.862C1438.22 368.56 1438.94 368.123 1439.56 367.552C1440.17 366.981 1440.66 366.304 1441 365.52C1441.35 364.737 1441.52 363.864 1441.52 362.901C1441.52 361.871 1441.34 360.981 1440.99 360.231C1440.63 359.481 1440.16 358.837 1439.59 358.3C1439.02 357.763 1438.39 357.315 1437.69 356.957C1437 356.598 1436.33 356.296 1435.68 356.05C1434.43 355.602 1433.37 355.126 1432.52 354.622C1431.67 354.119 1431.03 353.553 1430.61 352.926C1430.18 352.3 1429.97 351.549 1429.97 350.676C1429.97 349.624 1430.34 348.745 1431.08 348.04C1431.82 347.335 1432.87 346.982 1434.24 346.982C1435.27 346.982 1436.13 347.178 1436.82 347.57C1437.52 347.962 1438.09 348.449 1438.55 349.031C1439.01 349.613 1439.36 350.206 1439.61 350.811L1441.22 349.904C1440.91 349.143 1440.45 348.404 1439.84 347.687C1439.24 346.971 1438.48 346.378 1437.58 345.907C1436.67 345.437 1435.59 345.202 1434.34 345.202C1433.13 345.202 1432.04 345.443 1431.08 345.924C1430.12 346.405 1429.37 347.077 1428.83 347.939C1428.29 348.801 1428.02 349.792 1428.02 350.911C1428.02 351.919 1428.22 352.781 1428.61 353.497C1429 354.214 1429.51 354.824 1430.14 355.328C1430.77 355.831 1431.44 356.257 1432.17 356.604C1432.9 356.951 1433.6 357.248 1434.27 357.494C1435.16 357.83 1436.02 358.216 1436.84 358.653C1437.66 359.089 1438.32 359.654 1438.84 360.348C1439.35 361.043 1439.61 361.961 1439.61 363.102C1439.61 364.401 1439.18 365.47 1438.32 366.31C1437.45 367.149 1436.26 367.569 1434.74 367.569C1433.62 367.569 1432.66 367.328 1431.85 366.847C1431.04 366.366 1430.37 365.722 1429.82 364.916C1429.27 364.11 1428.81 363.214 1428.43 362.229Z" fill="#ffffff" fill-rule="nonzero" opacity="1" stroke="none"/>
<path d="M1457.74 361.121L1469.79 361.121L1469.19 359.375L1458.34 359.375L1457.74 361.121ZM1463.71 348.863L1468.35 360.08L1468.52 360.516L1472.01 369.013L1474.09 369.013L1463.71 344.598L1453.34 369.013L1455.42 369.013L1458.95 360.382L1459.15 359.979L1463.71 348.863Z" fill="#ffffff" fill-rule="nonzero" opacity="1" stroke="none"/>
<path d="M1487.21 345.504L1487.21 369.013L1498.77 369.013L1498.77 367.267L1489.06 367.267L1489.06 345.504L1487.21 345.504Z" fill="#ffffff" fill-rule="nonzero" opacity="1" stroke="none"/>
</g>
<g opacity="1">
<path d="M1311.12 403.626L1309.61 404.566C1309.99 405.663 1310.53 406.682 1311.23 407.622C1311.92 408.563 1312.78 409.313 1313.81 409.872C1314.84 410.432 1316.04 410.712 1317.41 410.712C1318.37 410.712 1319.26 410.561 1320.09 410.259C1320.92 409.956 1321.64 409.52 1322.26 408.949C1322.87 408.378 1323.36 407.701 1323.7 406.917C1324.05 406.133 1324.22 405.26 1324.22 404.297C1324.22 403.267 1324.04 402.377 1323.69 401.627C1323.33 400.877 1322.86 400.234 1322.29 399.696C1321.72 399.159 1321.09 398.711 1320.39 398.353C1319.7 397.995 1319.03 397.692 1318.38 397.446C1317.13 396.998 1316.07 396.523 1315.22 396.019C1314.37 395.515 1313.73 394.95 1313.31 394.323C1312.88 393.696 1312.67 392.946 1312.67 392.073C1312.67 391.02 1313.04 390.142 1313.78 389.436C1314.52 388.731 1315.57 388.379 1316.93 388.379C1317.96 388.379 1318.83 388.574 1319.52 388.966C1320.22 389.358 1320.79 389.845 1321.25 390.427C1321.71 391.009 1322.06 391.603 1322.31 392.207L1323.92 391.3C1323.61 390.539 1323.15 389.8 1322.54 389.084C1321.94 388.367 1321.18 387.774 1320.28 387.304C1319.37 386.834 1318.29 386.599 1317.04 386.599C1315.83 386.599 1314.74 386.839 1313.78 387.321C1312.82 387.802 1312.07 388.474 1311.53 389.336C1310.99 390.198 1310.72 391.188 1310.72 392.308C1310.72 393.315 1310.92 394.177 1311.31 394.894C1311.7 395.61 1312.21 396.22 1312.84 396.724C1313.46 397.228 1314.14 397.653 1314.87 398C1315.6 398.347 1316.3 398.644 1316.97 398.89C1317.86 399.226 1318.72 399.612 1319.54 400.049C1320.35 400.486 1321.02 401.051 1321.54 401.745C1322.05 402.439 1322.31 403.357 1322.31 404.499C1322.31 405.797 1321.88 406.867 1321.02 407.706C1320.15 408.546 1318.96 408.966 1317.44 408.966C1316.32 408.966 1315.36 408.725 1314.55 408.244C1313.74 407.762 1313.07 407.118 1312.52 406.312C1311.97 405.506 1311.51 404.611 1311.12 403.626Z" fill="#ffffff" fill-rule="nonzero" opacity="1" stroke="none"/>
<path d="M1338.56 386.901L1338.56 410.41L1340.4 410.41L1340.4 386.901L1338.56 386.901ZM1339.6 388.647L1344.06 388.647C1345.79 388.647 1347.19 389.089 1348.26 389.974C1349.34 390.858 1349.87 392.151 1349.87 393.853C1349.87 395.532 1349.34 396.819 1348.26 397.715C1347.19 398.61 1345.79 399.058 1344.06 399.058L1339.6 399.058L1339.6 400.805L1344.06 400.805C1345.54 400.805 1346.86 400.53 1348.01 399.982C1349.16 399.433 1350.07 398.633 1350.75 397.581C1351.42 396.528 1351.75 395.286 1351.75 393.853C1351.75 392.397 1351.42 391.155 1350.75 390.125C1350.07 389.095 1349.16 388.3 1348.01 387.74C1346.86 387.181 1345.54 386.901 1344.06 386.901L1339.6 386.901L1339.6 388.647Z" fill="#ffffff" fill-rule="nonzero" opacity="1" stroke="none"/>
<path d="M1366.66 398.655C1366.66 396.685 1367.08 394.933 1367.92 393.399C1368.76 391.866 1369.91 390.657 1371.38 389.772C1372.84 388.888 1374.52 388.446 1376.4 388.446C1378.28 388.446 1379.95 388.888 1381.42 389.772C1382.88 390.657 1384.03 391.866 1384.86 393.399C1385.69 394.933 1386.1 396.685 1386.1 398.655C1386.1 400.603 1385.69 402.349 1384.86 403.894C1384.03 405.439 1382.88 406.654 1381.42 407.538C1379.95 408.423 1378.28 408.865 1376.4 408.865C1374.52 408.865 1372.84 408.423 1371.38 407.538C1369.91 406.654 1368.76 405.439 1367.92 403.894C1367.08 402.349 1366.66 400.603 1366.66 398.655ZM1364.71 398.655C1364.71 400.379 1365 401.974 1365.58 403.441C1366.16 404.907 1366.98 406.184 1368.03 407.27C1369.09 408.355 1370.32 409.201 1371.74 409.805C1373.17 410.41 1374.72 410.712 1376.4 410.712C1378.08 410.712 1379.63 410.41 1381.05 409.805C1382.47 409.201 1383.71 408.355 1384.76 407.27C1385.81 406.184 1386.63 404.907 1387.21 403.441C1387.79 401.974 1388.08 400.379 1388.08 398.655C1388.08 396.931 1387.79 395.336 1387.21 393.87C1386.63 392.403 1385.81 391.127 1384.76 390.041C1383.71 388.955 1382.47 388.11 1381.05 387.505C1379.63 386.901 1378.08 386.599 1376.4 386.599C1374.72 386.599 1373.17 386.901 1371.74 387.505C1370.32 388.11 1369.09 388.955 1368.03 390.041C1366.98 391.127 1366.16 392.403 1365.58 393.87C1365 395.336 1364.71 396.931 1364.71 398.655Z" fill="#ffffff" fill-rule="nonzero" opacity="1" stroke="none"/>
<path d="M1399.02 388.647L1405.2 388.647L1405.2 410.41L1407.05 410.41L1407.05 388.647L1413.23 388.647L1413.23 386.901L1399.02 386.901L1399.02 388.647Z" fill="#ffffff" fill-rule="nonzero" opacity="1" stroke="none"/>
<path d="M1426.69 403.626L1425.18 404.566C1425.56 405.663 1426.1 406.682 1426.79 407.622C1427.48 408.563 1428.35 409.313 1429.38 409.872C1430.41 410.432 1431.6 410.712 1432.97 410.712C1433.93 410.712 1434.83 410.561 1435.66 410.259C1436.48 409.956 1437.21 409.52 1437.82 408.949C1438.44 408.378 1438.92 407.701 1439.27 406.917C1439.61 406.133 1439.79 405.26 1439.79 404.297C1439.79 403.267 1439.61 402.377 1439.25 401.627C1438.89 400.877 1438.43 400.234 1437.86 399.696C1437.28 399.159 1436.65 398.711 1435.96 398.353C1435.26 397.995 1434.59 397.692 1433.94 397.446C1432.69 396.998 1431.64 396.523 1430.79 396.019C1429.94 395.515 1429.3 394.95 1428.87 394.323C1428.45 393.696 1428.23 392.946 1428.23 392.073C1428.23 391.02 1428.6 390.142 1429.34 389.436C1430.08 388.731 1431.13 388.379 1432.5 388.379C1433.53 388.379 1434.39 388.574 1435.09 388.966C1435.78 389.358 1436.36 389.845 1436.81 390.427C1437.27 391.009 1437.63 391.603 1437.87 392.207L1439.48 391.3C1439.17 390.539 1438.71 389.8 1438.11 389.084C1437.5 388.367 1436.75 387.774 1435.84 387.304C1434.93 386.834 1433.85 386.599 1432.6 386.599C1431.39 386.599 1430.31 386.839 1429.34 387.321C1428.38 387.802 1427.63 388.474 1427.09 389.336C1426.55 390.198 1426.29 391.188 1426.29 392.308C1426.29 393.315 1426.48 394.177 1426.87 394.894C1427.27 395.61 1427.78 396.22 1428.4 396.724C1429.03 397.228 1429.71 397.653 1430.43 398C1431.16 398.347 1431.86 398.644 1432.53 398.89C1433.43 399.226 1434.28 399.612 1435.1 400.049C1435.92 400.486 1436.59 401.051 1437.1 401.745C1437.62 402.439 1437.87 403.357 1437.87 404.499C1437.87 405.797 1437.44 406.867 1436.58 407.706C1435.72 408.546 1434.53 408.966 1433 408.966C1431.88 408.966 1430.92 408.725 1430.11 408.244C1429.31 407.762 1428.63 407.118 1428.08 406.312C1427.53 405.506 1427.07 404.611 1426.69 403.626Z" fill="#ffffff" fill-rule="nonzero" opacity="1" stroke="none"/>
</g>
</g>
</g>
</svg>
