<?xml version="1.0" encoding="UTF-8" standalone="no"?>
<!DOCTYPE svg PUBLIC "-//W3C//DTD SVG 1.1//EN" "http://www.w3.org/Graphics/SVG/1.1/DTD/svg11.dtd">
<!-- Created with Linearity Curve (http://linearity.io/curve) -->
<svg height="100%" stroke-miterlimit="10" style="fill-rule:nonzero;clip-rule:evenodd;stroke-linecap:round;stroke-linejoin:round;" version="1.1" viewBox="37.2046 107.615 499.521 470.246" width="100%" xml:space="preserve" xmlns="http://www.w3.org/2000/svg" xmlns:vectornator="http://vectornator.io" xmlns:xlink="http://www.w3.org/1999/xlink">
<defs/>
<g id="Layer">
<g opacity="1">
<path d="M236.881 292.053C250.942 278.258 276.651 281.829 296.77 277.576C320.838 272.487 339.031 253.935 348 233.487C367.418 189.215 347.626 133.849 291.719 120.962C268.443 115.597 243.751 118.459 219.744 118.577C217.205 118.589 194.126 119.332 192.145 122.278C187.965 128.494 189.394 136.703 189.259 143.994C188.552 181.935 190.029 219.889 189.619 257.835C189.548 264.437 188.417 270.995 187.816 277.576C143.693 264.163 161.634 162.478 154.797 130.965C151.206 114.409 140.998 121.759 132.978 110.434C165.24 105.493 198.404 108.401 231.109 109.118C261.295 109.779 315.338 106.208 346.196 122.443C407.868 154.891 411.866 242.059 349.443 276.26C316.687 294.206 272.2 290.595 236.881 292.053Z" fill="#000000" fill-rule="nonzero" opacity="1" stroke="none"/>
<path d="M121.433 157.813C125.697 190.216 83.9361 206.736 116.743 252.241C176.211 334.727 323.755 363.429 299.656 483.871C279.541 584.397 118.834 610.237 53.6072 532.237C33.2202 507.858 37.4991 478.577 37.7331 449.982C39.8482 577.293 219.643 607.47 266.825 484.529C312.687 365.029 32.7063 327.737 81.7477 205.191C90.6128 183.039 103.264 175.278 121.433 157.813Z" fill="#a55a4a" fill-rule="nonzero" opacity="1" stroke="none"/>
<path d="M158.954 371.017C220.277 408.301 160.501 478.527 216.678 492.097C206.37 504.725 141.214 505.172 132.978 492.097C162.71 491.52 158.051 481.634 158.683 452.614C159.275 425.421 158.863 398.216 158.954 371.017Z" fill="#000000" fill-rule="nonzero" opacity="1" stroke="none"/>
<g opacity="1">
<path d="M310.996 330.727L310.996 354.236L312.843 354.236L312.843 330.727L310.996 330.727ZM312.037 332.474L316.504 332.474C318.228 332.474 319.627 332.916 320.702 333.8C321.777 334.685 322.314 335.978 322.314 337.679C322.314 339.359 321.777 340.646 320.702 341.541C319.627 342.437 318.228 342.885 316.504 342.885L312.037 342.885L312.037 344.631L316.504 344.631C317.982 344.631 319.297 344.357 320.45 343.808C321.603 343.26 322.515 342.459 323.187 341.407C323.859 340.355 324.195 339.112 324.195 337.679C324.195 336.224 323.859 334.981 323.187 333.951C322.515 332.922 321.603 332.127 320.45 331.567C319.297 331.007 317.982 330.727 316.504 330.727L312.037 330.727L312.037 332.474Z" fill="#000000" fill-rule="nonzero" opacity="1" stroke="none"/>
<path d="M342.49 343.019L350.281 354.236L352.565 354.236L344.539 343.019L342.49 343.019ZM338.493 330.727L338.493 354.236L340.34 354.236L340.34 330.727L338.493 330.727ZM339.467 332.373L343.867 332.373C345.053 332.373 346.106 332.575 347.024 332.978C347.942 333.381 348.664 333.963 349.19 334.724C349.716 335.485 349.979 336.426 349.979 337.545C349.979 338.664 349.722 339.61 349.207 340.383C348.692 341.155 347.97 341.737 347.041 342.129C346.111 342.521 345.053 342.717 343.867 342.717L339.467 342.717L339.467 344.363L343.867 344.363C345.389 344.363 346.749 344.099 347.947 343.573C349.145 343.047 350.091 342.269 350.785 341.239C351.479 340.209 351.826 338.978 351.826 337.545C351.826 336.09 351.479 334.858 350.785 333.851C350.091 332.843 349.145 332.071 347.947 331.533C346.749 330.996 345.389 330.727 343.867 330.727L339.467 330.727L339.467 332.373Z" fill="#000000" fill-rule="nonzero" opacity="1" stroke="none"/>
<path d="M366.662 342.482C366.662 340.512 367.082 338.76 367.922 337.226C368.761 335.692 369.914 334.483 371.381 333.599C372.847 332.714 374.521 332.272 376.402 332.272C378.282 332.272 379.956 332.714 381.423 333.599C382.889 334.483 384.037 335.692 384.865 337.226C385.693 338.76 386.108 340.512 386.108 342.482C386.108 344.43 385.693 346.176 384.865 347.721C384.037 349.266 382.889 350.48 381.423 351.365C379.956 352.249 378.282 352.691 376.402 352.691C374.521 352.691 372.847 352.249 371.381 351.365C369.914 350.48 368.761 349.266 367.922 347.721C367.082 346.176 366.662 344.43 366.662 342.482ZM364.714 342.482C364.714 344.206 365.006 345.801 365.588 347.268C366.17 348.734 366.987 350.01 368.039 351.096C369.092 352.182 370.329 353.027 371.75 353.632C373.172 354.236 374.723 354.539 376.402 354.539C378.081 354.539 379.631 354.236 381.053 353.632C382.475 353.027 383.712 352.182 384.764 351.096C385.817 350.01 386.634 348.734 387.216 347.268C387.798 345.801 388.089 344.206 388.089 342.482C388.089 340.758 387.798 339.163 387.216 337.696C386.634 336.23 385.817 334.953 384.764 333.868C383.712 332.782 382.475 331.936 381.053 331.332C379.631 330.727 378.081 330.425 376.402 330.425C374.723 330.425 373.172 330.727 371.75 331.332C370.329 331.936 369.092 332.782 368.039 333.868C366.987 334.953 366.17 336.23 365.588 337.696C365.006 339.163 364.714 340.758 364.714 342.482Z" fill="#000000" fill-rule="nonzero" opacity="1" stroke="none"/>
<path d="M402.388 330.727L402.388 354.236L404.235 354.236L404.235 330.727L402.388 330.727ZM403.429 332.474L407.896 332.474C409.62 332.474 411.019 332.916 412.094 333.8C413.168 334.685 413.706 335.978 413.706 337.679C413.706 339.359 413.168 340.646 412.094 341.541C411.019 342.437 409.62 342.885 407.896 342.885L403.429 342.885L403.429 344.631L407.896 344.631C409.373 344.631 410.689 344.357 411.842 343.808C412.995 343.26 413.907 342.459 414.579 341.407C415.25 340.355 415.586 339.112 415.586 337.679C415.586 336.224 415.25 334.981 414.579 333.951C413.907 332.922 412.995 332.127 411.842 331.567C410.689 331.007 409.373 330.727 407.896 330.727L403.429 330.727L403.429 332.474Z" fill="#000000" fill-rule="nonzero" opacity="1" stroke="none"/>
<path d="M430.49 342.482C430.49 340.512 430.909 338.76 431.749 337.226C432.589 335.692 433.742 334.483 435.208 333.599C436.675 332.714 438.348 332.272 440.229 332.272C442.11 332.272 443.783 332.714 445.25 333.599C446.716 334.483 447.864 335.692 448.692 337.226C449.521 338.76 449.935 340.512 449.935 342.482C449.935 344.43 449.521 346.176 448.692 347.721C447.864 349.266 446.716 350.48 445.25 351.365C443.783 352.249 442.11 352.691 440.229 352.691C438.348 352.691 436.675 352.249 435.208 351.365C433.742 350.48 432.589 349.266 431.749 347.721C430.909 346.176 430.49 344.43 430.49 342.482ZM428.542 342.482C428.542 344.206 428.833 345.801 429.415 347.268C429.997 348.734 430.814 350.01 431.867 351.096C432.919 352.182 434.156 353.027 435.578 353.632C436.999 354.236 438.55 354.539 440.229 354.539C441.908 354.539 443.459 354.236 444.88 353.632C446.302 353.027 447.539 352.182 448.591 351.096C449.644 350.01 450.461 348.734 451.043 347.268C451.625 345.801 451.916 344.206 451.916 342.482C451.916 340.758 451.625 339.163 451.043 337.696C450.461 336.23 449.644 334.953 448.591 333.868C447.539 332.782 446.302 331.936 444.88 331.332C443.459 330.727 441.908 330.425 440.229 330.425C438.55 330.425 436.999 330.727 435.578 331.332C434.156 331.936 432.919 332.782 431.867 333.868C430.814 334.953 429.997 336.23 429.415 337.696C428.833 339.163 428.542 340.758 428.542 342.482Z" fill="#000000" fill-rule="nonzero" opacity="1" stroke="none"/>
<path d="M466.383 347.452L464.872 348.393C465.252 349.49 465.79 350.508 466.484 351.449C467.178 352.389 468.04 353.139 469.07 353.699C470.1 354.259 471.297 354.539 472.663 354.539C473.626 354.539 474.522 354.387 475.35 354.085C476.178 353.783 476.9 353.346 477.516 352.775C478.132 352.204 478.613 351.527 478.96 350.744C479.307 349.96 479.481 349.087 479.481 348.124C479.481 347.094 479.302 346.204 478.943 345.454C478.585 344.704 478.121 344.06 477.55 343.523C476.979 342.986 476.346 342.538 475.652 342.18C474.958 341.821 474.286 341.519 473.637 341.273C472.383 340.825 471.331 340.349 470.48 339.845C469.629 339.342 468.991 338.776 468.566 338.149C468.141 337.523 467.928 336.773 467.928 335.899C467.928 334.847 468.297 333.968 469.036 333.263C469.775 332.558 470.827 332.205 472.193 332.205C473.223 332.205 474.085 332.401 474.779 332.793C475.473 333.185 476.05 333.672 476.509 334.254C476.968 334.836 477.32 335.429 477.566 336.034L479.179 335.127C478.865 334.366 478.406 333.627 477.802 332.91C477.197 332.194 476.441 331.601 475.535 331.13C474.628 330.66 473.548 330.425 472.294 330.425C471.085 330.425 469.999 330.666 469.036 331.147C468.073 331.629 467.323 332.3 466.786 333.162C466.249 334.024 465.98 335.015 465.98 336.134C465.98 337.142 466.176 338.004 466.568 338.72C466.959 339.437 467.469 340.047 468.096 340.551C468.723 341.055 469.4 341.48 470.128 341.827C470.855 342.174 471.555 342.471 472.227 342.717C473.122 343.053 473.979 343.439 474.796 343.876C475.613 344.312 476.279 344.878 476.794 345.572C477.309 346.266 477.566 347.184 477.566 348.325C477.566 349.624 477.135 350.693 476.273 351.533C475.411 352.372 474.219 352.792 472.697 352.792C471.577 352.792 470.615 352.551 469.809 352.07C469.003 351.589 468.325 350.945 467.777 350.139C467.228 349.333 466.764 348.437 466.383 347.452Z" fill="#000000" fill-rule="nonzero" opacity="1" stroke="none"/>
<path d="M495.694 346.344L507.751 346.344L507.146 344.598L496.298 344.598L495.694 346.344ZM501.672 334.086L506.306 345.303L506.474 345.74L509.967 354.236L512.049 354.236L501.672 329.821L491.294 354.236L493.377 354.236L496.903 345.605L497.104 345.202L501.672 334.086Z" fill="#000000" fill-rule="nonzero" opacity="1" stroke="none"/>
<path d="M525.173 330.727L525.173 354.236L536.726 354.236L536.726 352.49L527.02 352.49L527.02 330.727L525.173 330.727Z" fill="#000000" fill-rule="nonzero" opacity="1" stroke="none"/>
</g>
<g opacity="1">
<path d="M349.083 388.849L347.571 389.789C347.952 390.886 348.489 391.905 349.183 392.845C349.877 393.786 350.739 394.536 351.769 395.095C352.799 395.655 353.997 395.935 355.363 395.935C356.326 395.935 357.221 395.784 358.05 395.482C358.878 395.179 359.6 394.743 360.216 394.172C360.831 393.601 361.313 392.924 361.66 392.14C362.007 391.356 362.18 390.483 362.18 389.52C362.18 388.491 362.001 387.601 361.643 386.851C361.285 386.1 360.82 385.457 360.249 384.919C359.678 384.382 359.046 383.934 358.352 383.576C357.658 383.218 356.986 382.916 356.337 382.669C355.083 382.222 354.031 381.746 353.18 381.242C352.329 380.738 351.691 380.173 351.266 379.546C350.84 378.919 350.627 378.169 350.627 377.296C350.627 376.244 350.997 375.365 351.736 374.659C352.475 373.954 353.527 373.602 354.893 373.602C355.923 373.602 356.785 373.797 357.479 374.189C358.173 374.581 358.749 375.068 359.208 375.65C359.667 376.232 360.02 376.826 360.266 377.43L361.878 376.523C361.565 375.762 361.106 375.023 360.501 374.307C359.897 373.59 359.141 372.997 358.234 372.527C357.327 372.057 356.247 371.822 354.993 371.822C353.784 371.822 352.698 372.062 351.736 372.544C350.773 373.025 350.023 373.697 349.486 374.559C348.948 375.421 348.68 376.411 348.68 377.531C348.68 378.538 348.875 379.4 349.267 380.117C349.659 380.833 350.168 381.443 350.795 381.947C351.422 382.451 352.1 382.876 352.827 383.223C353.555 383.57 354.255 383.867 354.926 384.113C355.822 384.449 356.678 384.835 357.495 385.272C358.313 385.709 358.979 386.274 359.494 386.968C360.009 387.662 360.266 388.58 360.266 389.722C360.266 391.021 359.835 392.09 358.973 392.929C358.111 393.769 356.919 394.189 355.396 394.189C354.277 394.189 353.314 393.948 352.508 393.467C351.702 392.985 351.025 392.342 350.476 391.535C349.928 390.729 349.463 389.834 349.083 388.849Z" fill="#000000" fill-rule="nonzero" opacity="1" stroke="none"/>
<path d="M376.513 372.124L376.513 395.633L378.36 395.633L378.36 372.124L376.513 372.124ZM377.554 373.87L382.021 373.87C383.745 373.87 385.144 374.312 386.219 375.197C387.293 376.081 387.831 377.374 387.831 379.076C387.831 380.755 387.293 382.042 386.219 382.938C385.144 383.834 383.745 384.281 382.021 384.281L377.554 384.281L377.554 386.028L382.021 386.028C383.498 386.028 384.814 385.753 385.967 385.205C387.12 384.656 388.032 383.856 388.704 382.804C389.375 381.751 389.711 380.509 389.711 379.076C389.711 377.62 389.375 376.378 388.704 375.348C388.032 374.318 387.12 373.523 385.967 372.963C384.814 372.404 383.498 372.124 382.021 372.124L377.554 372.124L377.554 373.87Z" fill="#000000" fill-rule="nonzero" opacity="1" stroke="none"/>
<path d="M404.615 383.878C404.615 381.908 405.034 380.156 405.874 378.622C406.714 377.089 407.867 375.88 409.333 374.995C410.8 374.111 412.473 373.669 414.354 373.669C416.235 373.669 417.908 374.111 419.375 374.995C420.841 375.88 421.989 377.089 422.817 378.622C423.646 380.156 424.06 381.908 424.06 383.878C424.06 385.826 423.646 387.573 422.817 389.117C421.989 390.662 420.841 391.877 419.375 392.761C417.908 393.646 416.235 394.088 414.354 394.088C412.473 394.088 410.8 393.646 409.333 392.761C407.867 391.877 406.714 390.662 405.874 389.117C405.034 387.573 404.615 385.826 404.615 383.878ZM402.667 383.878C402.667 385.602 402.958 387.198 403.54 388.664C404.122 390.131 404.939 391.407 405.992 392.493C407.044 393.579 408.281 394.424 409.703 395.028C411.124 395.633 412.675 395.935 414.354 395.935C416.033 395.935 417.584 395.633 419.005 395.028C420.427 394.424 421.664 393.579 422.716 392.493C423.769 391.407 424.586 390.131 425.168 388.664C425.75 387.198 426.041 385.602 426.041 383.878C426.041 382.154 425.75 380.559 425.168 379.093C424.586 377.626 423.769 376.35 422.716 375.264C421.664 374.178 420.427 373.333 419.005 372.728C417.584 372.124 416.033 371.822 414.354 371.822C412.675 371.822 411.124 372.124 409.703 372.728C408.281 373.333 407.044 374.178 405.992 375.264C404.939 376.35 404.122 377.626 403.54 379.093C402.958 380.559 402.667 382.154 402.667 383.878Z" fill="#000000" fill-rule="nonzero" opacity="1" stroke="none"/>
<path d="M436.982 373.87L443.161 373.87L443.161 395.633L445.008 395.633L445.008 373.87L451.188 373.87L451.188 372.124L436.982 372.124L436.982 373.87Z" fill="#000000" fill-rule="nonzero" opacity="1" stroke="none"/>
<path d="M464.647 388.849L463.136 389.789C463.516 390.886 464.053 391.905 464.748 392.845C465.442 393.786 466.304 394.536 467.334 395.095C468.363 395.655 469.561 395.935 470.927 395.935C471.89 395.935 472.785 395.784 473.614 395.482C474.442 395.179 475.164 394.743 475.78 394.172C476.396 393.601 476.877 392.924 477.224 392.14C477.571 391.356 477.745 390.483 477.745 389.52C477.745 388.491 477.565 387.601 477.207 386.851C476.849 386.1 476.384 385.457 475.814 384.919C475.243 384.382 474.61 383.934 473.916 383.576C473.222 383.218 472.55 382.916 471.901 382.669C470.647 382.222 469.595 381.746 468.744 381.242C467.893 380.738 467.255 380.173 466.83 379.546C466.404 378.919 466.192 378.169 466.192 377.296C466.192 376.244 466.561 375.365 467.3 374.659C468.039 373.954 469.091 373.602 470.457 373.602C471.487 373.602 472.349 373.797 473.043 374.189C473.737 374.581 474.313 375.068 474.772 375.65C475.231 376.232 475.584 376.826 475.83 377.43L477.442 376.523C477.129 375.762 476.67 375.023 476.065 374.307C475.461 373.59 474.705 372.997 473.798 372.527C472.892 372.057 471.811 371.822 470.558 371.822C469.349 371.822 468.263 372.062 467.3 372.544C466.337 373.025 465.587 373.697 465.05 374.559C464.512 375.421 464.244 376.411 464.244 377.531C464.244 378.538 464.44 379.4 464.832 380.117C465.223 380.833 465.733 381.443 466.36 381.947C466.986 382.451 467.664 382.876 468.391 383.223C469.119 383.57 469.819 383.867 470.49 384.113C471.386 384.449 472.242 384.835 473.06 385.272C473.877 385.709 474.543 386.274 475.058 386.968C475.573 387.662 475.83 388.58 475.83 389.722C475.83 391.021 475.399 392.09 474.537 392.929C473.675 393.769 472.483 394.189 470.961 394.189C469.841 394.189 468.878 393.948 468.072 393.467C467.266 392.985 466.589 392.342 466.041 391.535C465.492 390.729 465.027 389.834 464.647 388.849Z" fill="#000000" fill-rule="nonzero" opacity="1" stroke="none"/>
</g>
</g>
</g>
</svg>
